name C:\Users\r0593348\3dpredictsim\Results\batch_windlass\Pog_s1_tmt_bCst_d00_k1500_WL40_ig24.mot
datacolumns 128
datarows 4
range 0.54057190 0.57300621
endheader
time	pelvis_tilt	pelvis_list	pelvis_rotation	pelvis_tx	pelvis_ty	pelvis_tz	hip_flexion_l	hip_adduction_l	hip_rotation_l	hip_flexion_r	hip_adduction_r	hip_rotation_r	knee_angle_l	knee_angle_r	ankle_angle_l	ankle_angle_r	subtalar_angle_l	subtalar_angle_r	tmt_angle_l	tmt_angle_r	mtp_angle_l	mtp_angle_r	lumbar_extension	lumbar_bending	lumbar_rotation	arm_flex_l	arm_add_l	arm_rot_l	arm_flex_r	arm_add_r	arm_rot_r	elbow_flex_l	elbow_flex_r	pro_sup_l	pro_sup_r	glut_med1_l/activation	glut_med2_l/activation	glut_med3_l/activation	glut_min1_l/activation	glut_min2_l/activation	glut_min3_l/activation	semimem_l/activation	semiten_l/activation	bifemlh_l/activation	bifemsh_l/activation	sar_l/activation	add_long_l/activation	add_brev_l/activation	add_mag1_l/activation	add_mag2_l/activation	add_mag3_l/activation	tfl_l/activation	pect_l/activation	grac_l/activation	glut_max1_l/activation	glut_max2_l/activation	glut_max3_l/activation	iliacus_l/activation	psoas_l/activation	quad_fem_l/activation	gem_l/activation	peri_l/activation	rect_fem_l/activation	vas_med_l/activation	vas_int_l/activation	vas_lat_l/activation	med_gas_l/activation	lat_gas_l/activation	soleus_l/activation	tib_post_l/activation	flex_dig_l/activation	flex_hal_l/activation	tib_ant_l/activation	per_brev_l/activation	per_long_l/activation	per_tert_l/activation	ext_dig_l/activation	ext_hal_l/activation	ercspn_l/activation	intobl_l/activation	extobl_l/activation	glut_med1_r/activation	glut_med2_r/activation	glut_med3_r/activation	glut_min1_r/activation	glut_min2_r/activation	glut_min3_r/activation	semimem_r/activation	semiten_r/activation	bifemlh_r/activation	bifemsh_r/activation	sar_r/activation	add_long_r/activation	add_brev_r/activation	add_mag1_r/activation	add_mag2_r/activation	add_mag3_r/activation	tfl_r/activation	pect_r/activation	grac_r/activation	glut_max1_r/activation	glut_max2_r/activation	glut_max3_r/activation	iliacus_r/activation	psoas_r/activation	quad_fem_r/activation	gem_r/activation	peri_r/activation	rect_fem_r/activation	vas_med_r/activation	vas_int_r/activation	vas_lat_r/activation	med_gas_r/activation	lat_gas_r/activation	soleus_r/activation	tib_post_r/activation	flex_dig_r/activation	flex_hal_r/activation	tib_ant_r/activation	per_brev_r/activation	per_long_r/activation	per_tert_r/activation	ext_dig_r/activation	ext_hal_r/activation	ercspn_r/activation	intobl_r/activation	extobl_r/activation	
          0.54057190	         -2.93017650	          1.47685673	         -5.14610472	          0.67571487	          0.86258479	          0.00196149	         31.49597218	          1.85721747	         -2.76301628	        -17.18627973	         -0.91152688	          7.06568864	        -16.20468984	         -7.45074022	          7.26765575	          3.38334664	          2.35072590	         12.80246972	         -0.23320178	        -11.55579709	          0.50610027	         27.37001883	         -1.58612474	          0.15316844	          1.83401443	         -8.78563554	        -13.50682110	          6.09916589	          5.12560225	        -13.45409439	         14.92659425	         17.99616432	         35.63376494	         86.51662706	         86.51662706	          0.05000023	          0.05068030	          0.05000078	          0.06963997	          0.05900305	          0.05000070	          0.06292024	          0.06963977	          0.06964293	          0.05000026	          0.05000043	          0.13510507	          0.16453917	          0.13455526	          0.13270959	          0.07900134	          0.05000041	          0.05000442	          0.06964457	          0.05154866	          0.06188023	          0.08960963	          0.05731315	          0.05900906	          0.22925190	          0.11374626	          0.10443156	          0.05000141	          0.07518021	          0.08200928	          0.06340818	          0.06964245	          0.06964243	          0.05185815	          0.05900963	          0.05900894	          0.05001196	          0.45999931	          0.26425948	          0.17818750	          0.12785824	          0.54041917	          0.15585698	          0.05981014	          0.11384539	          0.11845760	          0.36731504	          0.11059486	          0.05902300	          0.36110660	          0.22248004	          0.10974213	          0.05000090	          0.05000015	          0.05000014	          0.07213164	          0.08647852	          0.05000020	          0.05000012	          0.05000024	          0.05000063	          0.05000049	          0.28159839	          0.05000062	          0.05000055	          0.05000493	          0.05000254	          0.05000107	          0.29388463	          0.51124093	          0.05000042	          0.05000478	          0.05900947	          0.18818663	          0.05000538	          0.06186445	          0.05656153	          0.29602934	          0.37994285	          0.24611371	          0.23453106	          0.21725674	          0.29315872	          0.05000001	          0.16069125	          0.21799998	          0.05000006	          0.05000001	          0.05000007	          0.05000001	          0.05000002	          0.05000001	
          0.55138333	         -2.92679713	          1.54572324	         -5.37081460	          0.69202374	          0.86205164	          0.00174195	         30.83435729	          2.25970582	         -2.60664689	        -17.02670068	         -1.16200260	          6.87822708	        -15.51020679	         -9.31777325	          6.90175646	          2.39062142	          1.96389444	         13.61497936	         -0.33064094	        -12.16380170	          0.71550813	         28.56316838	         -1.39263508	         -0.07692330	          1.91517326	         -9.79646627	        -13.49266321	          5.83985311	          4.91113341	        -13.46759441	         15.24675842	         17.91150141	         36.64406142	         86.51662706	         86.51662706	          0.05900952	          0.05011037	          0.05000482	          0.05900785	          0.05000394	          0.05900893	          0.05900954	          0.05900948	          0.05901038	          0.05000016	          0.05000035	          0.11447983	          0.22705397	          0.11401215	          0.16042440	          0.09905495	          0.05000037	          0.05898589	          0.05901260	          0.05000148	          0.05691561	          0.11311415	          0.05000017	          0.05000005	          0.28961945	          0.10121793	          0.11536763	          0.05000005	          0.14437826	          0.14790626	          0.12255682	          0.05900952	          0.05900953	          0.05900952	          0.05000015	          0.05000020	          0.05000034	          0.52654322	          0.28418502	          0.16751880	          0.25342597	          0.59300100	          0.26330703	          0.05067839	          0.09646356	          0.10037159	          0.31920521	          0.09370933	          0.05001142	          0.30597329	          0.18851199	          0.09298680	          0.05000086	          0.05000016	          0.05000010	          0.06111865	          0.07327512	          0.11225552	          0.07553869	          0.05000064	          0.05000107	          0.05000061	          0.23860422	          0.05973852	          0.05000041	          0.05000079	          0.05000054	          0.05000042	          0.24901458	          0.47010904	          0.05000005	          0.05000012	          0.05000003	          0.15945445	          0.12205450	          0.05486134	          0.09057355	          0.25083180	          0.32193347	          0.20853726	          0.19872310	          0.18408630	          0.24839956	          0.05000000	          0.13615873	          0.18471608	          0.05000009	          0.05000002	          0.05000006	          0.05000001	          0.05000005	          0.05332057	
          0.56219477	         -2.91780231	          1.61473608	         -5.57106185	          0.70861543	          0.86132656	          0.00151757	         30.07014917	          2.64494871	         -2.40097415	        -16.78922813	         -1.40172963	          6.66762151	        -15.29173538	        -11.35561558	          6.34342056	          1.31553304	          1.57752799	         14.38850052	         -0.44462418	        -12.61379882	          0.95866047	         29.35528900	         -1.18029748	         -0.31444795	          1.98896656	        -10.80320481	        -13.48193003	          5.64110207	          4.62211587	        -13.48991920	         15.50220450	         17.80522039	         37.63213888	         86.51662706	         86.51662706	          0.05000001	          0.05000004	          0.08968058	          0.05000002	          0.05000003	          0.05000008	          0.05000002	          0.05000008	          0.05000073	          0.05000012	          0.05000568	          0.09700131	          0.19238776	          0.37357856	          0.24737673	          0.08393139	          0.05000011	          0.05000118	          0.05000329	          0.05900946	          0.05901086	          0.12741546	          0.05000007	          0.05901016	          0.58717103	          0.15995910	          0.12909634	          0.08219107	          0.25464349	          0.25649178	          0.21728000	          0.05000000	          0.05000002	          0.05000000	          0.06255823	          0.06964245	          0.06599973	          0.60719274	          0.37097570	          0.20158557	          0.28382559	          0.61080940	          0.22310560	          0.05000000	          0.08173558	          0.08504693	          0.27046922	          0.07940187	          0.05000006	          0.25925759	          0.15973015	          0.07878968	          0.05000210	          0.05000010	          0.05000012	          0.05178712	          0.06208759	          0.18889452	          0.21777546	          0.19700844	          0.06962535	          0.14012725	          0.20217437	          0.05061825	          0.05000023	          0.05000097	          0.05000071	          0.05000086	          0.21099524	          0.39855435	          0.05000006	          0.05000162	          0.05900955	          0.13510910	          0.13086272	          0.13510844	          0.11448051	          0.21253499	          0.27278091	          0.17669794	          0.16838224	          0.15598025	          0.21047416	          0.09665927	          0.11537014	          0.15651379	          0.05000009	          0.10497796	          0.05000037	          0.05130625	          0.07690308	          0.05378950	
          0.57300621	         -2.90429506	          1.69420235	         -5.74617818	          0.72539072	          0.86037425	          0.00133004	         29.13969312	          2.95608269	         -2.12540246	        -16.47458729	         -1.63261007	          6.43697455	        -15.45215734	        -13.57018473	          5.86321261	          0.22599354	          1.16193229	         15.08635875	         -0.84026248	        -12.77828384	          1.13477172	         29.44949663	         -0.95745346	         -0.57137066	          2.04879795	        -11.78056848	        -13.48651206	          5.54576353	          4.27443489	        -13.51077501	         15.69042915	         17.64418024	         38.59829809	         86.51662706	         86.51662706	          0.30062426	          0.27050947	          0.18740754	          0.12773287	          0.05000085	          0.28023603	          0.09082087	          0.05000016	          0.08986378	          0.05000003	          0.05000020	          0.08219134	          0.20030005	          0.31654091	          0.20960772	          0.12948714	          0.05000018	          0.06964338	          0.05000465	          0.05000007	          0.05000115	          0.10796216	          0.05000388	          0.05000060	          0.49752221	          0.13553672	          0.27835071	          0.06964221	          0.21576476	          0.21733089	          0.18410590	          0.05900951	          0.05900951	          0.05900952	          0.05837969	          0.05900960	          0.05900956	          0.60863826	          0.31433553	          0.17080767	          0.55522547	          0.66783852	          0.18904202	          0.05000002	          0.09443809	          0.07206203	          0.33371393	          0.06727887	          0.05000007	          0.21967443	          0.13534271	          0.06676016	          0.05000073	          0.05000020	          0.05000029	          0.05000002	          0.05260819	          0.16005500	          0.31886834	          0.16692949	          0.05901136	          0.11873294	          0.17130671	          0.08194381	          0.05000092	          0.05000524	          0.05001406	          0.05900933	          0.17878067	          0.37280603	          0.05000243	          0.05000039	          0.05000007	          0.11448075	          0.11088272	          0.11448020	          0.09700172	          0.18008531	          0.23113293	          0.14971983	          0.14267378	          0.13216537	          0.17833917	          0.19498537	          0.16656810	          0.18027754	          0.17014457	          0.21207049	          0.15247993	          0.06807961	          0.06516158	          0.05900955	
